<svg width="14" height="14" viewBox="0 0 14 14" fill="none" xmlns="http://www.w3.org/2000/svg">
<path fill-rule="evenodd" clip-rule="evenodd" d="M3.11273 1.67017C3.395 0.870198 4.15109 0.335205 4.9994 0.335205C5.84771 0.335205 6.6038 0.870198 6.88607 1.67017H13.6661V3.00351H6.88607C6.6038 3.80348 5.84771 4.33847 4.9994 4.33847C4.15109 4.33847 3.395 3.80348 3.11273 3.00351H0.332733V1.67017H3.11273ZM8.9994 5.00317C8.15109 5.00317 7.395 5.53817 7.11273 6.33814H0.332733V7.67147H7.11273C7.395 8.47145 8.15109 9.00644 8.9994 9.00644C9.84771 9.00644 10.6038 8.47145 10.8861 7.67147H13.6661V6.33814H10.8861C10.6038 5.53817 9.84771 5.00317 8.9994 5.00317ZM4.9994 9.66724C4.15109 9.66724 3.395 10.2022 3.11273 11.0022H0.332733V12.3355H3.11273C3.395 13.1355 4.15109 13.6705 4.9994 13.6705C5.84771 13.6705 6.6038 13.1355 6.88607 12.3355H13.6661V11.0022H6.88607C6.6038 10.2022 5.84771 9.66724 4.9994 9.66724ZM5.66607 2.3339C5.66607 2.70209 5.36759 3.00057 4.9994 3.00057C4.63121 3.00057 4.33273 2.70209 4.33273 2.3339C4.33273 1.96571 4.63121 1.66724 4.9994 1.66724C5.36759 1.66724 5.66607 1.96571 5.66607 2.3339ZM8.9994 7.67196C9.36759 7.67196 9.66607 7.37348 9.66607 7.00529C9.66607 6.6371 9.36759 6.33862 8.9994 6.33862C8.63121 6.33862 8.33273 6.6371 8.33273 7.00529C8.33273 7.37348 8.63121 7.67196 8.9994 7.67196ZM5.66607 11.6737C5.66607 12.0419 5.36759 12.3404 4.9994 12.3404C4.63121 12.3404 4.33273 12.0419 4.33273 11.6737C4.33273 11.3056 4.63121 11.0071 4.9994 11.0071C5.36759 11.0071 5.66607 11.3056 5.66607 11.6737Z" fill="black"/>
</svg>
